Coordinates
version=1
nRows=11
nColumns=40
inDegrees=yes

Units are S.I. units (second, meters, Newtons, ...)
Angles are in degrees.

endheader
time	pelvis_tilt	pelvis_list	pelvis_rotation	pelvis_tx	pelvis_ty	pelvis_tz	hip_flexion_r	hip_adduction_r	hip_rotation_r	knee_angle_r	knee_angle_r_beta	ankle_angle_r	subtalar_angle_r	mtp_angle_r	hip_flexion_l	hip_adduction_l	hip_rotation_l	knee_angle_l	knee_angle_l_beta	ankle_angle_l	subtalar_angle_l	mtp_angle_l	lumbar_extension	lumbar_bending	lumbar_rotation	arm_flex_r	arm_add_r	arm_rot_r	elbow_flex_r	pro_sup_r	wrist_flex_r	wrist_dev_r	arm_flex_l	arm_add_l	arm_rot_l	elbow_flex_l	pro_sup_l	wrist_flex_l	wrist_dev_l
     28.40014286	     -1.63734609	     -6.22174497	     -4.02153577	      0.96971473	      0.93929134	      0.40347747	     33.00552315	     -3.04061270	     -5.12073892	     45.51104734	     45.51104734	     -1.48697789	    -11.95670146	      2.52521984	     10.96158805	     -6.69339078	     -7.50219138	     20.77411992	     20.77411992	     12.75543044	    -14.09056213	      1.34976797	    -14.25035444	      4.28067146	      1.38190354	     -0.38997306	    -16.84627398	    -12.10128740	     20.57760288	     47.93619043	      0.00000000	      0.00000000	      8.38479957	    -15.98527792	     -5.59084624	     58.95028148	     46.98902439	      0.00000000	      0.00000000
     28.41278571	     -1.73555628	     -6.19036629	     -4.23097416	      0.97039733	      0.93932531	      0.40366892	     32.26157105	     -2.80840966	     -5.53131790	     40.44631756	     40.44631756	     -2.40273560	    -10.33348239	     -1.75463030	     10.41622897	     -6.67760923	     -7.90529405	     20.39360759	     20.39360759	     12.82320768	    -13.80128726	      0.75085191	    -14.47883056	      4.23600668	      1.31882131	     -2.19426487	    -17.08592963	    -13.56269802	     22.96442588	     47.87574785	      0.00000000	      0.00000000	      7.71413835	    -16.56694411	     -5.11473403	     62.36723681	     47.03228984	      0.00000000	      0.00000000
     28.42542857	     -1.89848498	     -6.20119685	     -4.38640597	      0.97114929	      0.93929719	      0.40387985	     31.50700881	     -2.46599267	     -5.96687576	     35.43827396	     35.43827396	     -2.01022226	     -8.07393349	     -1.69871137	      9.96189301	     -6.67547725	     -8.10254726	     20.03813338	     20.03813338	     12.97982680	    -13.64247083	      0.67732600	    -14.47183321	      4.37145665	      1.21695625	     -3.02815662	    -17.40051201	    -13.71325880	     22.83175284	     47.87388666	      0.00000000	      0.00000000	      8.02935698	    -16.65935614	     -5.16835555	     62.63554322	     47.05024236	      0.00000000	      0.00000000
     28.43807143	     -2.09214010	     -6.09912684	     -4.60751085	      0.97205850	      0.93894729	      0.40439634	     30.68566701	     -2.23208824	     -6.61704163	     30.40607828	     30.40607828	     -1.81481721	     -5.23940655	     -1.93403269	      9.52642367	     -6.59130864	     -8.45132972	     19.69564032	     19.69564032	     13.20423049	    -13.39297133	      0.42768996	    -14.39463884	      4.23687218	      1.24325825	     -4.25700644	    -17.58008977	    -14.08147582	     23.42499153	     47.82776271	      0.00000000	      0.00000000	      8.26450583	    -16.75212947	     -5.06129150	     63.31209114	     47.07429980	      0.00000000	      0.00000000
     28.45071429	     -2.32533234	     -6.03321406	     -4.79285020	      0.97306667	      0.93834309	      0.40509179	     29.81063487	     -1.78293181	     -6.97251398	     25.47269602	     25.47269602	     -1.56218106	     -3.06574650	     -1.16327731	      9.22079459	     -6.54928919	     -8.62046448	     19.51821155	     19.51821155	     13.43879501	    -13.35405131	      0.26306778	    -14.20529735	      4.20619055	      1.11497793	     -5.01821209	    -17.66961221	    -14.19803561	     23.50091237	     47.81604144	      0.00000000	      0.00000000	      8.36406877	    -16.90515275	     -5.04456068	     63.67423890	     47.08491170	      0.00000000	      0.00000000
     28.46335714	     -2.34117487	     -5.85092166	     -4.97070282	      0.97438098	      0.93781620	      0.40579744	     28.83768729	     -1.61154789	     -7.85162369	     21.23989231	     21.23989231	     -0.46677126	      0.26272217	      1.70230598	      8.62377744	     -6.38581409	     -8.99190468	     19.26634932	     19.26634932	     13.62685128	    -13.08325232	     -0.28521202	    -14.29957868	      4.03486744	      1.44138814	     -6.85891028	    -17.70298279	    -14.97521044	     25.71355235	     47.64770282	      0.00000000	      0.00000000	      8.64706115	    -17.05413788	     -4.39072798	     64.39530354	     47.10888191	      0.00000000	      0.00000000
     28.47600000	     -2.43622971	     -5.68591901	     -5.11040847	      0.97582451	      0.93700851	      0.40671010	     27.89665290	     -1.26886290	     -8.36030958	     17.26851069	     17.26851069	     -0.24294039	      2.33679167	      2.90153173	      8.18702235	     -6.24231980	     -9.18073786	     19.16467740	     19.16467740	     13.94192713	    -13.00531461	     -0.50020373	    -14.16284479	      3.88437432	      1.34599053	     -7.52002274	    -17.69699712	    -15.05730082	     25.66185807	     47.63631676	      0.00000000	      0.00000000	      8.69412572	    -17.10413888	     -4.34313704	     64.59186053	     47.11611620	      0.00000000	      0.00000000
     28.48864286	     -2.43990284	     -5.47859210	     -5.24750783	      0.97750588	      0.93620741	      0.40772665	     27.04960108	     -1.03537801	     -8.99726197	     14.19417952	     14.19417952	      0.23213243	      4.42951592	      4.46111739	      7.61990827	     -6.05748985	     -9.43228416	     19.03304069	     19.03304069	     14.27864452	    -12.80726515	     -0.77544774	    -14.09921336	      3.68131182	      1.31762380	     -8.18919038	    -17.61776796	    -15.19688131	     25.80215838	     47.61818980	      0.00000000	      0.00000000	      8.72906075	    -17.14364363	     -4.25388380	     64.80674646	     47.12190144	      0.00000000	      0.00000000
     28.50128571	     -2.55398548	     -5.26053504	     -5.40510251	      0.97911625	      0.93529344	      0.40886841	     26.75908775	     -0.91937164	     -9.80949216	     12.57539180	     12.57539180	      2.22592348	      6.53280763	     10.09420550	      7.19762122	     -5.89260512	     -9.74933362	     18.93472717	     18.93472717	     14.52689038	    -12.57435743	     -1.24140129	    -13.91059766	      3.49672807	      1.63094233	     -9.42180300	    -17.34983175	    -16.05590097	     27.21915656	     47.51306722	      0.00000000	      0.00000000	      8.99351085	    -17.14643718	     -3.63574077	     64.73788874	     47.13075754	      0.00000000	      0.00000000
     28.51392857	     -2.55409407	     -5.06674350	     -5.50634372	      0.98100809	      0.93442730	      0.41016197	     26.18235765	     -0.71779450	    -10.14930706	     11.12359535	     11.12359535	      2.46666818	      7.37406838	     10.56336884	      6.63954865	     -5.73184373	     -9.93777612	     18.84651816	     18.84651816	     14.91590250	    -12.43562513	     -1.38611914	    -13.77247944	      3.30746761	      1.59903766	     -9.79221200	    -17.13032992	    -16.18723796	     27.20503903	     47.50075703	      0.00000000	      0.00000000	      8.99230221	    -17.11075092	     -3.57114019	     64.65047071	     47.13494843	      0.00000000	      0.00000000
     28.52657143	     -2.57345026	     -4.91079941	     -5.57133894	      0.98302419	      0.93356482	      0.41150958	     25.71818356	     -0.55515890	    -10.45364987	     10.42986875	     10.42986875	      2.68398706	      7.89763983	     10.74478191	      6.10363548	     -5.62103558	    -10.10873475	     18.76706523	     18.76706523	     15.31693178	    -12.22152417	     -1.52451896	    -13.56496395	      3.19309524	      1.55387458	    -10.07674230	    -16.87958626	    -16.32643596	     27.26601329	     47.49024873	      0.00000000	      0.00000000	      8.93562736	    -17.02571063	     -3.49855444	     64.47145336	     47.13457524	      0.00000000	      0.00000000
